<svg width="282" height="232" viewBox="0 0 282 232" stroke="black" fill="black" xmlns="http://www.w3.org/2000/svg">
<mask id="mask0_5_461" style="mask-type:luminance" maskUnits="userSpaceOnUse" x="0" y="0" width="282" height="232">
<path d="M282 0H0V232H282V0Z" fill="white"/>
</mask>
<g mask="url(#mask0_5_461)">
<path fill-rule="evenodd" clip-rule="evenodd" d="M188.667 26.1031C188.452 26.1586 188.005 26.3343 187.672 26.4937C186.896 26.8659 185.993 27.7304 185.598 28.4809C185.102 29.42 185.092 29.4859 184.401 36.33C183.071 49.4999 182.202 57.0237 181.27 63.4514C178.861 80.07 175.856 89.1418 170.782 95.1189C169.899 96.1585 168.355 97.652 167.304 98.4818C166.469 99.1417 164.473 100.474 163.537 100.996C158.928 103.567 152.689 105.527 144.094 107.105C136.173 108.559 126.45 109.742 107.198 111.595C101.279 112.165 101.149 112.185 100.195 112.669C99.4391 113.053 98.561 113.945 98.1805 114.716C97.7887 115.509 97.6711 116.001 97.6711 116.854C97.6711 117.706 97.7887 118.198 98.1805 118.991C98.5964 119.834 99.4464 120.672 100.302 121.083C100.634 121.242 101.098 121.419 101.333 121.476C101.567 121.533 103.791 121.771 106.273 122.004C124.284 123.701 133.395 124.742 140.962 125.97C160.101 129.074 168.744 133.582 174.003 143.205C176.751 148.232 178.777 155.064 180.455 164.965C181.698 172.297 182.738 180.858 184.47 197.989C184.785 201.1 185.077 203.812 185.119 204.016C185.161 204.219 185.335 204.669 185.505 205.016C186.019 206.062 186.684 206.729 187.707 207.227C188.472 207.598 188.982 207.714 189.84 207.714C190.705 207.714 191.204 207.599 192.008 207.213C192.863 206.802 193.713 205.964 194.13 205.121C194.292 204.794 194.472 204.337 194.53 204.105C194.587 203.874 194.844 201.477 195.1 198.779C196.949 179.297 198.118 169.64 199.587 161.706C200.984 154.165 202.622 148.708 204.805 144.326C205.919 142.09 206.898 140.541 208.283 138.824C208.959 137.987 210.682 136.242 211.523 135.544C217.182 130.846 225.51 127.967 239.817 125.762C247.328 124.605 255.84 123.65 273.016 122.039C275.714 121.786 278.113 121.533 278.348 121.476C279.642 121.164 280.93 120.148 281.501 118.991C281.936 118.109 282.032 117.653 281.992 116.645C281.965 115.949 281.925 115.711 281.761 115.278C281.218 113.833 279.998 112.711 278.49 112.271C278.12 112.163 276.768 112.008 273.194 111.666C252.658 109.7 243.029 108.53 234.841 107.008C220.568 104.353 212.72 100.608 207.745 94.0771C204.616 89.9716 202.251 84.1777 200.477 76.2764C198.578 67.8128 197.294 57.9151 195.065 34.5429C194.828 32.0568 194.587 29.8334 194.529 29.6021C194.212 28.325 193.19 27.0666 192.008 26.4962C191.676 26.3358 191.213 26.1569 190.98 26.0988C190.446 25.9651 189.193 25.9675 188.667 26.1031Z" fill="white"/>
<path fill-rule="evenodd" clip-rule="evenodd" d="M60.6638 0.068748C60.5208 0.105751 60.2219 0.222928 60.0007 0.329171C59.4829 0.577308 58.8817 1.15366 58.6177 1.65394C58.2873 2.28005 58.2806 2.32397 57.8196 6.88668C56.933 15.6666 56.3538 20.6824 55.7327 24.9677C54.1263 36.0465 52.1231 42.0947 48.7403 46.0794C48.152 46.7723 47.1225 47.7679 46.4222 48.3212C45.8652 48.761 44.5344 49.6491 43.9103 49.9973C40.8379 51.7112 36.6781 53.0182 30.9481 54.07C25.6677 55.0393 19.1856 55.8282 6.35074 57.0637C2.40509 57.4433 2.31793 57.4566 1.68248 57.7797C1.17859 58.0355 0.593224 58.6305 0.339339 59.1439C0.078105 59.6728 0 60.0009 0 60.5692C0 61.1375 0.078105 61.4656 0.339339 61.9939C0.616921 62.5562 1.18332 63.1145 1.75357 63.3887C1.97513 63.4947 2.28437 63.613 2.44077 63.6507C2.59717 63.6884 4.07941 63.8472 5.73462 64.0031C17.7417 65.1337 23.8158 65.8281 28.8607 66.6467C41.62 68.7164 47.3815 71.7213 50.8878 78.1363C52.7199 81.4881 54.0702 86.0426 55.1889 92.6429C56.0174 97.531 56.7113 103.239 57.8657 114.659C58.0757 116.733 58.2704 118.541 58.2986 118.677C58.3267 118.813 58.4427 119.113 58.5564 119.344C58.8986 120.041 59.3416 120.486 60.0243 120.818C60.5337 121.065 60.8732 121.143 61.4462 121.143C62.0226 121.143 62.3552 121.066 62.8916 120.808C63.4613 120.535 64.0281 119.976 64.3061 119.414C64.4136 119.196 64.5335 118.891 64.5724 118.737C64.6106 118.583 64.7818 116.985 64.9523 115.186C66.185 102.198 66.964 95.7599 67.944 90.4706C68.8755 85.4432 69.9675 81.805 71.4226 78.8839C72.165 77.3931 72.8179 76.3607 73.741 75.2163C74.1913 74.6579 75.3402 73.4946 75.9008 73.0295C79.6737 69.8975 85.2253 67.9777 94.7638 66.508C99.7711 65.7365 105.446 65.0999 116.897 64.0259C118.695 63.8577 120.295 63.6884 120.451 63.6507C121.313 63.4426 122.172 62.7654 122.553 61.9939C122.843 61.4062 122.907 61.1026 122.881 60.4304C122.862 59.9664 122.835 59.8072 122.727 59.5191C122.364 58.555 121.551 57.8074 120.546 57.5138C120.299 57.4416 119.397 57.339 117.015 57.1109C103.325 55.8004 96.9056 55.0205 91.4462 54.0052C81.9314 52.2355 76.6995 49.7389 73.3819 45.3848C71.2965 42.6476 69.7199 38.7851 68.5373 33.5177C67.2708 27.8752 66.4152 21.2767 64.9292 5.69532C64.7711 4.03788 64.6106 2.55566 64.5718 2.40148C64.3602 1.55004 63.6791 0.711113 62.8916 0.330853C62.6699 0.223909 62.3614 0.104677 62.206 0.0658986C61.8492 -0.0231985 61.0144 -0.0216569 60.6638 0.068748Z" fill="white"/>
<path fill-rule="evenodd" clip-rule="evenodd" d="M105.558 151.474C105.463 151.499 105.264 151.577 105.117 151.648C104.773 151.812 104.373 152.196 104.197 152.528C103.978 152.945 103.973 152.974 103.667 156.009C103.077 161.848 102.692 165.185 102.278 168.035C101.21 175.403 99.8775 179.425 97.6277 182.076C97.2365 182.537 96.5521 183.199 96.086 183.567C95.7156 183.859 94.8308 184.45 94.4154 184.681C92.3722 185.821 89.6051 186.691 85.7944 187.39C82.2827 188.035 77.971 188.559 69.4351 189.381C66.8104 189.634 66.7524 189.643 66.3302 189.858C65.9948 190.027 65.6053 190.423 65.4364 190.765C65.263 191.116 65.2112 191.335 65.2112 191.712C65.2112 192.09 65.263 192.309 65.4364 192.66C65.621 193.034 65.9981 193.405 66.3775 193.588C66.5244 193.659 66.7304 193.737 66.8346 193.762C66.9381 193.788 67.9243 193.893 69.0253 193.996C77.0108 194.749 81.0505 195.211 84.4058 195.755C92.8923 197.131 96.7243 199.13 99.0563 203.396C100.274 205.626 101.173 208.655 101.917 213.045C102.468 216.296 102.929 220.092 103.697 227.687C103.837 229.067 103.966 230.27 103.985 230.36C104.003 230.45 104.081 230.65 104.157 230.804C104.384 231.267 104.679 231.563 105.133 231.784C105.472 231.948 105.698 232 106.078 232C106.461 232 106.683 231.949 107.04 231.777C107.419 231.595 107.795 231.224 107.981 230.85C108.052 230.705 108.132 230.502 108.157 230.4C108.183 230.297 108.297 229.234 108.411 228.038C109.23 219.4 109.749 215.118 110.4 211.6C111.02 208.256 111.746 205.837 112.714 203.894C113.208 202.902 113.641 202.216 114.256 201.454C114.555 201.083 115.319 200.309 115.692 200C118.201 197.917 121.894 196.64 128.238 195.663C131.568 195.149 135.343 194.726 142.958 194.012C144.154 193.9 145.218 193.788 145.322 193.762C145.896 193.624 146.467 193.174 146.72 192.66C146.914 192.269 146.956 192.068 146.938 191.62C146.926 191.312 146.908 191.206 146.836 191.014C146.594 190.373 146.054 189.876 145.385 189.681C145.221 189.633 144.622 189.565 143.037 189.412C133.931 188.541 129.662 188.023 126.031 187.347C119.703 186.17 116.223 184.509 114.017 181.614C112.63 179.793 111.581 177.224 110.794 173.721C109.952 169.968 109.383 165.58 108.395 155.216C108.29 154.114 108.183 153.128 108.157 153.026C108.017 152.46 107.564 151.902 107.04 151.649C106.892 151.578 106.687 151.498 106.584 151.472C106.347 151.413 105.791 151.414 105.558 151.474Z" fill="white"/>
</g>
</svg>
