<svg width="24" height="24" viewBox="0 0 24 24" fill="none" xmlns="http://www.w3.org/2000/svg">
<path fill-rule="evenodd" clip-rule="evenodd" d="M11.5 5C10.0413 5 8.64236 5.57946 7.61091 6.61091C6.57946 7.64236 6 9.04131 6 10.5C6 11.2223 6.14226 11.9375 6.41866 12.6048C6.69506 13.272 7.10019 13.8784 7.61091 14.3891C8.12164 14.8998 8.72795 15.3049 9.39524 15.5813C10.0625 15.8577 10.7777 16 11.5 16C12.2223 16 12.9375 15.8577 13.6048 15.5813C14.272 15.3049 14.8784 14.8998 15.3891 14.3891C15.8998 13.8784 16.3049 13.272 16.5813 12.6048C16.8577 11.9375 17 11.2223 17 10.5C17 9.04131 16.4205 7.64236 15.3891 6.61091C14.3576 5.57946 12.9587 5 11.5 5ZM6.90381 5.90381C8.12279 4.68482 9.77609 4 11.5 4C13.2239 4 14.8772 4.68482 16.0962 5.90381C17.3152 7.12279 18 8.77609 18 10.5C18 11.3536 17.8319 12.1988 17.5052 12.9874C17.1786 13.7761 16.6998 14.4926 16.0962 15.0962C15.4926 15.6998 14.7761 16.1786 13.9874 16.5052C13.1988 16.8319 12.3536 17 11.5 17C10.6464 17 9.80117 16.8319 9.01256 16.5052C8.22394 16.1786 7.50739 15.6998 6.90381 15.0962C6.30023 14.4926 5.82144 13.7761 5.49478 12.9874C5.16813 12.1988 5 11.3536 5 10.5C5 8.77609 5.68482 7.12279 6.90381 5.90381ZM11.5 6C11.7761 6 12 6.22386 12 6.5V10H14.5C14.7761 10 15 10.2239 15 10.5C15 10.7761 14.7761 11 14.5 11H11.5C11.2239 11 11 10.7761 11 10.5V6.5C11 6.22386 11.2239 6 11.5 6Z" fill="#631FF8"/>
</svg>
