<svg width="23" height="23" viewBox="0 0 23 23" fill="none" xmlns="http://www.w3.org/2000/svg">
<path fill-rule="evenodd" clip-rule="evenodd" d="M1.09524 11.5C1.09524 5.75361 5.75361 1.09524 11.5 1.09524C17.2464 1.09524 21.9048 5.75361 21.9048 11.5C21.9048 17.2464 17.2464 21.9048 11.5 21.9048C5.75361 21.9048 1.09524 17.2464 1.09524 11.5ZM11.5 0C5.14873 0 0 5.14873 0 11.5C0 17.8513 5.14873 23 11.5 23C17.8513 23 23 17.8513 23 11.5C23 5.14873 17.8513 0 11.5 0ZM12.42 2.19055C12.7224 2.19055 12.9676 2.43573 12.9676 2.73817V10.9524H18.9914C19.2939 10.9524 19.539 11.1976 19.539 11.5C19.539 11.8025 19.2939 12.0476 18.9914 12.0476H12.4285L12.42 12.0477C12.1176 12.0477 11.8724 11.8025 11.8724 11.5001V11.5V2.73817C11.8724 2.43573 12.1176 2.19055 12.42 2.19055Z" fill="#BCBCBC"/>
</svg>
