<svg width="12" height="17" viewBox="0 0 12 17" fill="none" xmlns="http://www.w3.org/2000/svg">
<path fill-rule="evenodd" clip-rule="evenodd" d="M1 6.1C1 3.28334 3.28334 1 6.1 1C8.91666 1 11.2 3.28334 11.2 6.1C11.2 9.925 6.1 15.5714 6.1 15.5714C6.1 15.5714 1 9.925 1 6.1ZM8.28567 6.09996C8.28567 7.30709 7.30709 8.28567 6.09996 8.28567C4.89282 8.28567 3.91424 7.30709 3.91424 6.09996C3.91424 4.89282 4.89282 3.91424 6.09996 3.91424C7.30709 3.91424 8.28567 4.89282 8.28567 6.09996Z" fill="#BB9DFB"/>
<path d="M6.1 15.5714L5.72895 15.9066C5.82375 16.0115 5.95857 16.0714 6.1 16.0714C6.24143 16.0714 6.37625 16.0115 6.47105 15.9066L6.1 15.5714ZM6.1 0.5C3.0072 0.5 0.5 3.0072 0.5 6.1H1.5C1.5 3.55949 3.55949 1.5 6.1 1.5V0.5ZM11.7 6.1C11.7 3.0072 9.1928 0.5 6.1 0.5V1.5C8.64051 1.5 10.7 3.55949 10.7 6.1H11.7ZM6.1 15.5714C6.47105 15.9066 6.47113 15.9065 6.47122 15.9064C6.47128 15.9063 6.47139 15.9062 6.47151 15.9061C6.47173 15.9058 6.47204 15.9055 6.47242 15.905C6.47319 15.9042 6.47426 15.903 6.47564 15.9015C6.47839 15.8984 6.48235 15.894 6.48749 15.8882C6.49775 15.8768 6.5127 15.86 6.53202 15.8381C6.57066 15.7943 6.6268 15.7303 6.69794 15.6477C6.8402 15.4826 7.0426 15.2433 7.2851 14.9445C7.76967 14.3474 8.41658 13.51 9.06448 12.5497C9.71142 11.5909 10.3655 10.5005 10.8594 9.39801C11.3504 8.30211 11.7 7.15742 11.7 6.1H10.7C10.7 6.95508 10.4121 7.95056 9.94682 8.98916C9.48447 10.0212 8.86358 11.0596 8.23552 11.9904C7.60842 12.9199 6.98033 13.7331 6.50865 14.3143C6.27303 14.6046 6.07698 14.8364 5.94034 14.995C5.87203 15.0743 5.8186 15.1352 5.78253 15.1761C5.7645 15.1965 5.75081 15.2119 5.74177 15.222C5.73726 15.227 5.7339 15.2308 5.73175 15.2332C5.73068 15.2344 5.7299 15.2352 5.72943 15.2357C5.7292 15.236 5.72904 15.2362 5.72896 15.2363C5.72892 15.2363 5.72892 15.2363 5.7289 15.2363C5.72891 15.2363 5.72895 15.2363 6.1 15.5714ZM0.5 6.1C0.5 7.15742 0.849614 8.30211 1.34057 9.39801C1.83447 10.5005 2.48858 11.5909 3.13552 12.5497C3.78342 13.51 4.43033 14.3474 4.9149 14.9445C5.1574 15.2433 5.3598 15.4826 5.50206 15.6477C5.5732 15.7303 5.62934 15.7943 5.66798 15.8381C5.6873 15.86 5.70225 15.8768 5.71251 15.8882C5.71765 15.894 5.72161 15.8984 5.72436 15.9015C5.72574 15.903 5.72681 15.9042 5.72758 15.905C5.72796 15.9055 5.72827 15.9058 5.72849 15.9061C5.72861 15.9062 5.72872 15.9063 5.72878 15.9064C5.72887 15.9065 5.72895 15.9066 6.1 15.5714C6.47105 15.2363 6.47109 15.2363 6.4711 15.2363C6.47108 15.2363 6.47108 15.2363 6.47104 15.2363C6.47096 15.2362 6.4708 15.236 6.47057 15.2357C6.4701 15.2352 6.46932 15.2344 6.46825 15.2332C6.4661 15.2308 6.46274 15.227 6.45823 15.222C6.44919 15.2119 6.4355 15.1965 6.41747 15.1761C6.3814 15.1352 6.32797 15.0743 6.25966 14.995C6.12302 14.8364 5.92697 14.6046 5.69135 14.3143C5.21967 13.7331 4.59158 12.9199 3.96448 11.9904C3.33642 11.0596 2.71553 10.0212 2.25318 8.98916C1.78789 7.95056 1.5 6.95508 1.5 6.1H0.5ZM6.09996 8.78567C7.58324 8.78567 8.78567 7.58324 8.78567 6.09996H7.78567C7.78567 7.03095 7.03095 7.78567 6.09996 7.78567V8.78567ZM3.41424 6.09996C3.41424 7.58323 4.61668 8.78567 6.09996 8.78567V7.78567C5.16896 7.78567 4.41424 7.03095 4.41424 6.09996H3.41424ZM6.09996 3.41424C4.61668 3.41424 3.41424 4.61668 3.41424 6.09996H4.41424C4.41424 5.16896 5.16896 4.41424 6.09996 4.41424V3.41424ZM8.78567 6.09996C8.78567 4.61668 7.58323 3.41424 6.09996 3.41424V4.41424C7.03095 4.41424 7.78567 5.16896 7.78567 6.09996H8.78567Z" fill="#631FF8"/>
</svg>
