<svg width="10" height="13" viewBox="0 0 10 13" fill="none" xmlns="http://www.w3.org/2000/svg">
<path fill-rule="evenodd" clip-rule="evenodd" d="M0 1.16071C0 0.519868 0.508961 0 1.13636 0H4.09091C5.6581 0 7.1611 0.635904 8.26927 1.76782C9.37744 2.89974 10 4.43494 10 6.03571V11.8393C10 12.4801 9.49104 13 8.86364 13H1.13636C0.508961 13 0 12.4801 0 11.8393V1.16071ZM9.09091 6.26786C9.09091 5.83688 8.9233 5.42355 8.62494 5.11881C8.32659 4.81406 7.92194 4.64286 7.5 4.64286H6.59091C6.28953 4.64286 6.00049 4.52057 5.78738 4.30289C5.57427 4.08522 5.45455 3.78998 5.45455 3.48214V2.55357C5.45455 2.12259 5.28693 1.70927 4.98858 1.40452C4.69023 1.09978 4.28557 0.928571 3.86364 0.928571H1.13636C1.01104 0.928571 0.909091 1.0327 0.909091 1.16071V11.8393C0.909091 11.9673 1.01104 12.0714 1.13636 12.0714H8.86364C8.98896 12.0714 9.09091 11.9673 9.09091 11.8393V6.26786ZM6.06514 1.34354C6.25932 1.71216 6.36364 2.12737 6.36364 2.55357V3.48214C6.36364 3.54371 6.38758 3.60276 6.4302 3.64629C6.47283 3.68983 6.53063 3.71429 6.59091 3.71429H7.5C7.91726 3.71429 8.32376 3.82083 8.68464 4.01917C8.43651 3.42943 8.07942 2.88711 7.62644 2.42442C7.17346 1.96173 6.64252 1.59699 6.06514 1.34354ZM2.27273 8.35714C2.27273 8.10073 2.47623 7.89286 2.72727 7.89286H7.27273C7.52377 7.89286 7.72727 8.10073 7.72727 8.35714C7.72727 8.61356 7.52377 8.82143 7.27273 8.82143H2.72727C2.47623 8.82143 2.27273 8.61356 2.27273 8.35714ZM2.27273 10.2143C2.27273 9.95787 2.47623 9.75 2.72727 9.75H5C5.25104 9.75 5.45455 9.95787 5.45455 10.2143C5.45455 10.4707 5.25104 10.6786 5 10.6786H2.72727C2.47623 10.6786 2.27273 10.4707 2.27273 10.2143Z" fill="#631FF8"/>
</svg>
